<?xml version="1.0" encoding="UTF-8"?><svg id="a" xmlns="http://www.w3.org/2000/svg" viewBox="0 0 102.16 41.27"><defs><style>.b{fill:#295be6;}.c{fill:none;stroke:#fff;stroke-miterlimit:10;stroke-width:2px;}</style></defs><polygon class="b" points="7.61 31.54 4.45 37.46 13.34 32.25 42.94 31.82 42.89 0 0 9.44 0 31.68 7.61 31.54"/><path class="c" d="M10.92,19.31s9.82,12.84,21.1-1"/><g><path d="M48.72,25.54c-.76-.64-1.14-1.85-1.14-3.63v-5.03h-2.5v-2.44h2.5v-3.53l2.84-.02v3.55h3.61v2.44h-3.61v5.16c0,1.4,.58,2.1,1.75,2.1h1.86v2.36h-2.45c-1.15,0-2.1-.32-2.86-.96Z"/><path d="M56.71,26c-.87-.57-1.55-1.34-2.04-2.32s-.74-2.05-.74-3.21,.25-2.22,.74-3.2,1.18-1.75,2.04-2.33,1.82-.86,2.88-.86c.98,0,1.86,.21,2.62,.64s1.34,1.01,1.73,1.76v-2.04h2.7v12.05h-2.7v-2.03c-.39,.75-.97,1.34-1.73,1.76s-1.63,.63-2.61,.63c-1.06,0-2.03-.29-2.89-.86Zm5.36-2.27c.54-.33,.97-.79,1.28-1.36s.47-1.21,.47-1.9-.16-1.32-.47-1.89-.74-1.03-1.28-1.37-1.13-.5-1.78-.5-1.24,.16-1.78,.47-.97,.76-1.28,1.33-.47,1.22-.47,1.96,.16,1.42,.48,1.99,.75,1.01,1.29,1.31,1.13,.46,1.77,.46,1.24-.17,1.79-.5Z"/><path d="M68.77,9.98h2.84V26.49h-2.84V9.98Z"/><path d="M81.58,26.49l-3.13-5.43-1.9,2.07v3.35h-2.84V9.99h2.84v10.1l4.24-5.65h3.46l-3.74,4.77,4.25,7.28h-3.19Z"/><path class="b" d="M85.49,12.11c-.32-.31-.47-.7-.47-1.17s.16-.85,.47-1.15,.74-.46,1.28-.46,.98,.15,1.3,.46,.48,.69,.48,1.15-.16,.87-.48,1.17-.76,.46-1.31,.46-.96-.15-1.27-.46Zm-.12,2.34h2.84v12.05h-2.84V14.45Z"/><path class="b" d="M92.55,26c-.96-.57-1.72-1.34-2.27-2.31s-.82-2.04-.82-3.22,.27-2.23,.82-3.21,1.3-1.75,2.27-2.32,2.05-.86,3.25-.86,2.3,.29,3.27,.86,1.73,1.34,2.27,2.32,.82,2.05,.82,3.21-.27,2.25-.82,3.22-1.31,1.75-2.28,2.31-2.06,.85-3.28,.85-2.28-.29-3.24-.86Zm5.07-2.26c.54-.32,.96-.77,1.27-1.34s.46-1.21,.46-1.93-.15-1.35-.46-1.93-.73-1.02-1.27-1.35-1.14-.49-1.8-.49-1.27,.16-1.8,.49-.96,.77-1.27,1.35-.46,1.22-.46,1.93,.15,1.36,.46,1.93,.73,1.02,1.27,1.34,1.14,.48,1.81,.48,1.28-.16,1.81-.48Z"/></g></svg>